<svg xmlns="http://www.w3.org/2000/svg" version="1.1" xmlns:xlink="http://www.w3.org/1999/xlink" xmlns:svgjs="http://svgjs.dev/svgjs" viewBox="0 0 800 800" width="800" height="800"><g stroke-width="3.5" stroke="#0e0501ff" fill="none"><circle r="4.289473684210526" cx="0" cy="0" fill="#0e0501ff" stroke="none"></circle><circle r="4.289473684210526" cx="200" cy="0" fill="#0e0501ff" stroke="none"></circle><circle r="4.289473684210526" cx="400" cy="0" fill="#0e0501ff" stroke="none"></circle><circle r="4.289473684210526" cx="600" cy="0" fill="#0e0501ff" stroke="none"></circle><circle r="4.289473684210526" cx="800" cy="0" fill="#0e0501ff" stroke="none"></circle><circle r="4.289473684210526" cx="0" cy="200" fill="#0e0501ff" stroke="none"></circle><circle r="4.289473684210526" cx="200" cy="200" fill="#0e0501ff" stroke="none"></circle><circle r="4.289473684210526" cx="400" cy="200" fill="#0e0501ff" stroke="none"></circle><circle r="4.289473684210526" cx="600" cy="200" fill="#0e0501ff" stroke="none"></circle><circle r="4.289473684210526" cx="800" cy="200" fill="#0e0501ff" stroke="none"></circle><circle r="4.289473684210526" cx="0" cy="400" fill="#0e0501ff" stroke="none"></circle><circle r="4.289473684210526" cx="200" cy="400" fill="#0e0501ff" stroke="none"></circle><circle r="4.289473684210526" cx="400" cy="400" fill="#0e0501ff" stroke="none"></circle><circle r="4.289473684210526" cx="600" cy="400" fill="#0e0501ff" stroke="none"></circle><circle r="4.289473684210526" cx="800" cy="400" fill="#0e0501ff" stroke="none"></circle><circle r="4.289473684210526" cx="0" cy="600" fill="#0e0501ff" stroke="none"></circle><circle r="4.289473684210526" cx="200" cy="600" fill="#0e0501ff" stroke="none"></circle><circle r="4.289473684210526" cx="400" cy="600" fill="#0e0501ff" stroke="none"></circle><circle r="4.289473684210526" cx="600" cy="600" fill="#0e0501ff" stroke="none"></circle><circle r="4.289473684210526" cx="800" cy="600" fill="#0e0501ff" stroke="none"></circle><circle r="4.289473684210526" cx="0" cy="800" fill="#0e0501ff" stroke="none"></circle><circle r="4.289473684210526" cx="200" cy="800" fill="#0e0501ff" stroke="none"></circle><circle r="4.289473684210526" cx="400" cy="800" fill="#0e0501ff" stroke="none"></circle><circle r="4.289473684210526" cx="600" cy="800" fill="#0e0501ff" stroke="none"></circle><circle r="4.289473684210526" cx="800" cy="800" fill="#0e0501ff" stroke="none"></circle></g></svg>